<svg id="Laag_1" data-name="Laag 1" xmlns="http://www.w3.org/2000/svg" xmlns:xlink="http://www.w3.org/1999/xlink" viewBox="0 0 1686.8 361.8"><defs><linearGradient id="Naamloos_verloop_14" x1="229.96" y1="338.37" x2="697.92" y2="-76.49" gradientUnits="userSpaceOnUse"><stop offset="0.01" stop-color="#61dcda"/><stop offset="0.03" stop-color="#5dd7d5"/><stop offset="0.14" stop-color="#4dc5c2"/><stop offset="0.24" stop-color="#43bbb7"/><stop offset="0.36" stop-color="#40b7b3"/><stop offset="0.69" stop-color="#269a94"/></linearGradient><linearGradient id="Naamloos_verloop_15" x1="1329.49" y1="64.54" x2="1033.97" y2="347.05" gradientUnits="userSpaceOnUse"><stop offset="0" stop-color="#61dcda"/><stop offset="0.03" stop-color="#5dd7d5"/><stop offset="0.15" stop-color="#4dc5c2"/><stop offset="0.29" stop-color="#43bbb7"/><stop offset="0.43" stop-color="#40b7b3"/><stop offset="0.64" stop-color="#31a6a1"/><stop offset="0.77" stop-color="#269a94"/></linearGradient></defs><polygon points="317.4 361.1 91.4 361.1 497.2 1.1 715.1 1.1 317.4 361.1" style="fill:url(#Naamloos_verloop_14)"/><polygon points="1121.7 361.1 895.7 361.1 1301.5 1.1 1519.4 1.1 1121.7 361.1" style="fill:url(#Naamloos_verloop_15)"/><polygon points="895.7 361.1 1121.7 361.1 715.9 1.1 498 1.1 895.7 361.1" style="fill:#40b7b3"/><path d="M532.5,671c-2.5,10.3-5,20.6-7.6,30.8q-18,71.4-35.9,142.6c-4.7,18.5-9.4,37-13.9,55.6-.8,3.2-1.9,4.4-5.2,4.4q-49.2-.1-98.5,0c-3.3,0-4.6-1.4-5.3-4.4q-17.6-69.9-35.3-139.7-13.2-51.9-26.5-103.7L277,549.6c-1.2-4.7-.6-5.7,4.2-5.8,27.9,0,55.9.1,83.9,0,3.9-.1,5.3,1.8,5.9,5.1q6.9,35.3,14,70.4c5,25.5,10.1,50.9,15.1,76.3q9.1,46.6,18.4,93.3a46.2,46.2,0,0,0,3.9,12.7,27.8,27.8,0,0,0,1.6-4c7.1-28.3,14.1-56.7,21-85,5.5-22.6,10.8-45.2,16.4-67.7s10.8-44.2,16.3-66.2c2.3-9.4,4.8-18.7,6.8-28.1,1-4.7,2.7-7,8.1-6.9q42,.4,84,0c4.9,0,6.7,1.6,7.7,6,5.3,22.9,10.8,45.6,16.1,68.5q13.6,57.6,27.2,115.4l14.7,63.1c.4,1.8,1.1,3.6,2,6.6,1-1.9,1.7-2.6,1.8-3.4q13.8-69.4,27.5-138.8c7.3-37.2,14.8-74.3,22.1-111.5.8-4.1,2.4-5.9,6.9-5.9,27.8.2,55.6.1,83.4.1,5.2,0,5.8,1,4.4,6q-12.6,47.9-25.1,95.8c-7.5,28.7-15.2,57.4-22.7,86.1s-14.7,56.8-22.1,85.2l-21.6,82.9c-.9,3.5-2.6,4.6-6.3,4.6-32.1-.1-64.3-.1-96.4,0-3.9.1-5.6-1.1-6.5-4.9q-10.2-42.9-20.6-85.7-13.2-53.7-26.3-107.4c-2.6-10.7-5-21.4-7.6-32a25.5,25.5,0,0,0-1.4-3.5Z" transform="translate(-276.4 -542.7)"/><path d="M1150.3,904c-2.3.2-4,.4-5.7.4h-88c-3.8,0-5.9-1.2-7.7-4.6q-34.5-62.7-69-125.4c-2.4-4.3-4.9-6.2-10-6.1-14.4.5-14.4.2-14.4,14.4,0,38.7-.1,77.4.1,116.2,0,4.4-1.3,5.6-5.6,5.5-25.8-.2-51.6-.1-77.5,0-4,0-5.4-1.1-5.4-5.3q.1-175.1,0-350c0-4.2,1.5-5.4,5.6-5.4,49.4.1,98.9-.3,148.3.3,27.7.3,54.4,6,78,21.4,36.9,24.1,51.7,59.3,48.1,102.2-3.9,46.2-29.8,76.1-73,91.8-6.5,2.4-6.5,2.3-3,8.2l77.6,133C1149.2,901.6,1149.6,902.5,1150.3,904ZM955.5,661.5c0,12.9.2,25.9-.1,38.8-.1,5,1.6,6.2,6.3,6.1,14.1-.3,28.3.1,42.4-.2a126.6,126.6,0,0,0,20.4-1.6c15.1-2.5,26-10.6,30.9-25.5a57.2,57.2,0,0,0,2.1-26.6c-3.3-20.1-16.4-33.2-36.9-34.4s-40.5-.7-60.8-1.1c-3.8,0-4.4,1.9-4.4,5.1C955.5,635.2,955.5,648.3,955.5,661.5Z" transform="translate(-276.4 -542.7)"/><path d="M1643.6,724.1q0-87-.1-174c0-4.4.9-6.4,5.7-6.3,47.7.1,95.3-.3,143,.3,28.5.4,55.9,6.2,80.1,22.5,29.2,19.8,43.6,48.2,46.2,82.7,1.9,24.6-2.2,48.1-15,69.6-14.1,23.8-35.1,39-61.1,47.8-18.3,6.2-37.3,8.4-56.5,8.3-16-.1-32,.2-48-.1-5-.1-6.3,1.4-6.3,6.2.2,38.9.1,77.7.1,116.6,0,6.7,0,6.7-6.4,6.7-25.3,0-50.6-.1-76,.1-4.5.1-5.9-1.2-5.8-5.9Q1643.7,811.3,1643.6,724.1Zm88.1-64.1c0,13.5.1,26.9,0,40.4,0,3,.7,4.7,4.1,4.6,18-.2,36,.5,53.9-.7s30.5-8.1,36.2-25c2.3-6.9,3-14.7,2.9-22-.2-24.1-13.8-39.4-37.7-41.2-17.9-1.3-35.9-.7-53.9-1.2-4.7-.2-5.6,1.6-5.5,5.8C1731.8,633.8,1731.7,646.9,1731.7,660Z" transform="translate(-276.4 -542.7)"/><path d="M1574.3,903.2l-5.7.2c-27.7,0-55.3-.1-82.9.1-4.6.1-6.4-1.6-7.8-5.6-5.8-17.7-12.1-35.3-17.9-53-1.3-4.1-3.5-5.3-7.7-5.3-40.2.2-84.9.9-125.1.7,0,0-3-2.2-5.5-4.4-22.9-19.9-45.3-40.3-68.1-60.3q40.8-110.6,81.3-221.2c5-13.6,1.3-11.5,16.8-11.5,28.1-.1,56.2,0,84.4-.2,4.5,0,6.5,1.6,8,5.6Q1484,657.4,1524,766.2c16.1,43.7,32,87.6,48.1,131.4C1572.6,899.1,1573.3,900.6,1574.3,903.2Zm-230.7-132a34.1,34.1,0,0,0,4.9.6h79.2c4.2,0,5.3-.9,3.8-5.2q-18.6-53.9-37-107.8c-2.1-6.1-4.4-12.2-6.6-18.3Z" transform="translate(-276.4 -542.7)"/><circle cx="1642.5" cy="317.5" r="44.4"/></svg>